<svg width="48" height="48" viewBox="0 0 48 48" fill="none" xmlns="http://www.w3.org/2000/svg">
    <path d="M34 44C33.4333 44 32.9587 43.808 32.576 43.424C32.1933 43.04 32.0013 42.5653 32 42V39.5C30.7 39.0667 29.5333 38.4087 28.5 37.526C27.4667 36.6433 26.65 35.5847 26.05 34.35C25.7833 33.85 25.7833 33.35 26.05 32.85C26.3167 32.35 26.7167 31.9833 27.25 31.75C27.7167 31.55 28.1833 31.5667 28.65 31.8C29.1167 32.0333 29.4833 32.3833 29.75 32.85C30.2833 33.8167 31.0167 34.5833 31.95 35.15C32.8833 35.7167 33.9 36 35 36H41C41.8333 36 42.542 36.292 43.126 36.876C43.71 37.46 44.0013 38.168 44 39V42C44 42.5667 43.808 43.042 43.424 43.426C43.04 43.81 42.5653 44.0014 42 44H34ZM38 34C36.9 34 35.9587 33.6087 35.176 32.826C34.3933 32.0433 34.0013 31.1013 34 30C33.9987 28.8987 34.3907 27.9573 35.176 27.176C35.9613 26.3947 36.9027 26.0027 38 26C39.0973 25.9973 40.0393 26.3893 40.826 27.176C41.6127 27.9627 42.004 28.904 42 30C41.996 31.096 41.6047 32.038 40.826 32.826C40.0473 33.614 39.1053 34.0053 38 34ZM6 22C5.43333 22 4.95867 21.808 4.576 21.424C4.19333 21.04 4.00133 20.5653 4 20V17C4 16.1667 4.292 15.4587 4.876 14.876C5.46 14.2933 6.168 14.0013 7 14H13C14.1 14 15.1167 13.7167 16.05 13.15C16.9833 12.5833 17.7167 11.8167 18.25 10.85C18.5167 10.3833 18.8833 10.0087 19.35 9.72601C19.8167 9.44335 20.3 9.38468 20.8 9.55001C21.3667 9.71668 21.8 10.0333 22.1 10.5C22.4 10.9667 22.45 11.45 22.25 11.95C21.6833 13.3167 20.85 14.4667 19.75 15.4C18.65 16.3333 17.4 17.0333 16 17.5V20C16 20.5667 15.808 21.042 15.424 21.426C15.04 21.81 14.5653 22.0013 14 22H6ZM10 12C8.9 12 7.95867 11.6087 7.176 10.826C6.39333 10.0433 6.00133 9.10135 6 8.00001C5.99867 6.89868 6.39067 5.95735 7.176 5.17601C7.96133 4.39468 8.90267 4.00268 10 4.00001C11.0973 3.99735 12.0393 4.38935 12.826 5.17601C13.6127 5.96268 14.004 6.90401 14 8.00001C13.996 9.09601 13.6047 10.038 12.826 10.826C12.0473 11.614 11.1053 12.0053 10 12ZM20 28C19.4333 28 18.9587 27.808 18.576 27.424C18.1933 27.04 18.0013 26.5653 18 26C18 21.5333 19.55 17.75 22.65 14.65C25.75 11.55 29.5333 10 34 10C34.5667 10 35.042 10.1913 35.426 10.574C35.81 10.9567 36.0013 11.432 36 12C35.9987 12.568 35.8067 13.0433 35.424 13.426C35.0413 13.8087 34.5667 14 34 14C30.6667 14 27.8333 15.1667 25.5 17.5C23.1667 19.8333 22 22.6667 22 26C22 26.5667 21.808 27.042 21.424 27.426C21.04 27.81 20.5653 28.0013 20 28ZM28 28C27.4333 28 26.9587 27.808 26.576 27.424C26.1933 27.04 26.0013 26.5653 26 26C26 23.8 26.7833 21.9167 28.35 20.35C29.9167 18.7833 31.8 18 34 18C34.5667 18 35.042 18.192 35.426 18.576C35.81 18.96 36.0013 19.4347 36 20C35.9987 20.5653 35.8067 21.0407 35.424 21.426C35.0413 21.8113 34.5667 22.0027 34 22C32.9 22 31.9587 22.392 31.176 23.176C30.3933 23.96 30.0013 24.9013 30 26C30 26.5667 29.808 27.042 29.424 27.426C29.04 27.81 28.5653 28.0013 28 28Z" fill="black"/>
</svg>
